<svg width="128" height="128" viewBox="0 0 128 128" xmlns="http://www.w3.org/2000/svg">
  <defs>
    <linearGradient id="bgGrad" x1="0%" y1="0%" x2="100%" y2="100%">
      <stop offset="0%" style="stop-color:#667eea;stop-opacity:1" />
      <stop offset="100%" style="stop-color:#764ba2;stop-opacity:1" />
    </linearGradient>
    <linearGradient id="accentGrad" x1="0%" y1="0%" x2="100%" y2="100%">
      <stop offset="0%" style="stop-color:#00f2fe;stop-opacity:1" />
      <stop offset="100%" style="stop-color:#4facfe;stop-opacity:1" />
    </linearGradient>
  </defs>

  <!-- Background Circle -->
  <circle cx="64" cy="64" r="60" fill="url(#bgGrad)"/>

  <!-- Modern "AI Brain" / Neural Network Design -->
  <g transform="translate(64, 64)">
    <!-- Central Node (Larger) -->
    <circle cx="0" cy="0" r="8" fill="white" opacity="0.95">
      <animate attributeName="opacity" values="0.95;1;0.95" dur="2s" repeatCount="indefinite"/>
    </circle>

    <!-- Top Nodes -->
    <circle cx="-20" cy="-25" r="5" fill="url(#accentGrad)" opacity="0.9"/>
    <circle cx="0" cy="-30" r="5" fill="url(#accentGrad)" opacity="0.9"/>
    <circle cx="20" cy="-25" r="5" fill="url(#accentGrad)" opacity="0.9"/>

    <!-- Middle Left/Right Nodes -->
    <circle cx="-30" cy="0" r="5" fill="url(#accentGrad)" opacity="0.9"/>
    <circle cx="30" cy="0" r="5" fill="url(#accentGrad)" opacity="0.9"/>

    <!-- Bottom Nodes -->
    <circle cx="-20" cy="25" r="5" fill="url(#accentGrad)" opacity="0.9"/>
    <circle cx="0" cy="30" r="5" fill="url(#accentGrad)" opacity="0.9"/>
    <circle cx="20" cy="25" r="5" fill="url(#accentGrad)" opacity="0.9"/>

    <!-- Connection Lines (Neural Network Style) -->
    <g stroke="white" stroke-width="2" opacity="0.4" fill="none">
      <!-- From center to all nodes -->
      <line x1="0" y1="0" x2="-20" y2="-25"/>
      <line x1="0" y1="0" x2="0" y2="-30"/>
      <line x1="0" y1="0" x2="20" y2="-25"/>
      <line x1="0" y1="0" x2="-30" y2="0"/>
      <line x1="0" y1="0" x2="30" y2="0"/>
      <line x1="0" y1="0" x2="-20" y2="25"/>
      <line x1="0" y1="0" x2="0" y2="30"/>
      <line x1="0" y1="0" x2="20" y2="25"/>

      <!-- Cross connections for complexity -->
      <line x1="-20" y1="-25" x2="20" y2="-25" opacity="0.3"/>
      <line x1="-30" y1="0" x2="30" y2="0" opacity="0.3"/>
      <line x1="-20" y1="25" x2="20" y2="25" opacity="0.3"/>
    </g>

    <!-- Animated Pulse Rings -->
    <circle cx="0" cy="0" r="8" fill="none" stroke="white" stroke-width="2" opacity="0.8">
      <animate attributeName="r" values="8;20;8" dur="3s" repeatCount="indefinite"/>
      <animate attributeName="opacity" values="0.8;0;0.8" dur="3s" repeatCount="indefinite"/>
    </circle>

    <!-- Sparkle Particles -->
    <circle cx="-25" cy="-15" r="2" fill="#00f2fe" opacity="0.8">
      <animate attributeName="opacity" values="0.8;0.3;0.8" dur="2.5s" repeatCount="indefinite"/>
    </circle>
    <circle cx="25" cy="-15" r="2" fill="#00f2fe" opacity="0.6">
      <animate attributeName="opacity" values="0.6;1;0.6" dur="2s" repeatCount="indefinite"/>
    </circle>
    <circle cx="0" cy="20" r="2" fill="#00f2fe" opacity="0.7">
      <animate attributeName="opacity" values="0.7;0.3;0.7" dur="1.8s" repeatCount="indefinite"/>
    </circle>
  </g>

  <!-- Outer Ring for Tech Look -->
  <circle cx="64" cy="64" r="60" fill="none" stroke="rgba(255,255,255,0.2)" stroke-width="2"/>
  <circle cx="64" cy="64" r="55" fill="none" stroke="rgba(255,255,255,0.1)" stroke-width="1"/>
</svg>
